<svg width="50" height="50" viewBox="0 0 50 50" fill="none" xmlns="http://www.w3.org/2000/svg">
<rect width="50" height="50" rx="20" fill="white"/>
<circle cx="25" cy="24.4893" r="16.2333" stroke="#1A1A1A" stroke-width="3"/>
<path d="M6 24.6107C6 24.0584 6.44772 23.6107 7 23.6107H43C43.5523 23.6107 44 24.0584 44 24.6107V31.344C44 36.8668 39.5228 41.344 34 41.344H16C10.4772 41.344 6 36.8668 6 31.344V24.6107Z" fill="#1A1A1A"/>
<path d="M15.1194 41.3441H34.8808V42.2441C34.8808 42.7963 34.4331 43.2441 33.8808 43.2441H16.1194C15.5672 43.2441 15.1194 42.7963 15.1194 42.2441V41.3441Z" fill="#1A1A1A"/>
<circle cx="31.9045" cy="15.7058" r="1.42338" fill="#1A1A1A"/>
<circle cx="29.0578" cy="20.5367" r="1.42338" fill="#1A1A1A"/>
<circle cx="34.7514" cy="20.5367" r="1.42338" fill="#1A1A1A"/>
</svg>
